<svg width="24" height="24" viewBox="0 0 24 24" fill="none" xmlns="http://www.w3.org/2000/svg">
<path d="M18.7 0.9C18.85 0.85 19 0.9 19.1 0.95C19.35 1.1 19.5 1.35 19.55 1.7L20.05 4.4H20.9L20.4 1.55C20.3 0.95 20 0.5 19.55 0.2C19.2 0 18.8 -0.05 18.45 0.05L4.54999 4.35L7.14999 4.4L18.7 0.9Z" fill="#F04B36"/>
<path d="M22.2 4.4001H20.95H20.1H7.20001L4.55001 4.3501C4.20001 4.4501 3.85001 4.7001 3.65001 5.1001C3.50001 5.3501 3.45001 5.6001 3.45001 5.9001V12.8001C4.00001 12.6501 4.60001 12.5501 5.20001 12.5501C8.65001 12.5501 11.45 15.2501 11.45 18.5501C11.45 19.1001 11.4 19.6001 11.25 20.1001H22.2C22.9 20.1001 23.5 19.4501 23.5 18.6501V15.4001H17.4C17.15 15.4001 17 15.2001 17 15.0001V9.6501C17 9.4001 17.2 9.2501 17.4 9.2501H23.5V5.9001C23.5 5.1001 22.9 4.4001 22.2 4.4001Z" fill="#F7A93B"/>
<path d="M17.8 14.55H23.5V10.05H17.8V14.55ZM20.4 11.45C20.8 11.45 21.15 11.85 21.15 12.3C21.15 12.8 20.8 13.15 20.4 13.15C20 13.15 19.65 12.75 19.65 12.3C19.65 11.85 20 11.45 20.4 11.45Z" fill="#E77528"/>
<path d="M5.25 13.5C2.35 13.5 0 15.75 0 18.5C0 21.25 2.35 23.5 5.25 23.5C7.4 23.5 9.4 22.2 10.15 20.25C10.35 19.7 10.5 19.1 10.5 18.5C10.5 15.75 8.15 13.5 5.25 13.5ZM7.25 19H5.75V20.5C5.75 20.75 5.55 21 5.25 21C5 21 4.75 20.8 4.75 20.5V19H3.25C3 19 2.75 18.8 2.75 18.5C2.75 18.25 2.95 18 3.25 18H4.75V16.5C4.75 16.25 4.95 16 5.25 16C5.5 16 5.75 16.2 5.75 16.5V18H7.25C7.5 18 7.75 18.2 7.75 18.5C7.75 18.8 7.55 19 7.25 19Z" fill="#0DB89A"/>
</svg>
