<svg width="46" height="46" viewBox="0 0 46 46" fill="none" xmlns="http://www.w3.org/2000/svg">
<rect width="45.5" height="45.5" rx="22.75" fill="#080808" fill-opacity="0.05"/>
<path d="M29.7 11.9C29.85 11.85 30 11.9 30.1 11.95C30.35 12.1 30.5 12.35 30.55 12.7L31.05 15.4H31.9L31.4 12.55C31.3 11.95 31 11.5 30.55 11.2C30.2 11 29.8 10.95 29.45 11.05L15.55 15.35L18.15 15.4L29.7 11.9Z" fill="#F04B36"/>
<path d="M33.2 15.4001H31.95H31.1H18.2L15.55 15.3501C15.2 15.4501 14.85 15.7001 14.65 16.1001C14.5 16.3501 14.45 16.6001 14.45 16.9001V23.8001C15 23.6501 15.6 23.5501 16.2 23.5501C19.65 23.5501 22.45 26.2501 22.45 29.5501C22.45 30.1001 22.4 30.6001 22.25 31.1001H33.2C33.9 31.1001 34.5 30.4501 34.5 29.6501V26.4001H28.4C28.15 26.4001 28 26.2001 28 26.0001V20.6501C28 20.4001 28.2 20.2501 28.4 20.2501H34.5V16.9001C34.5 16.1001 33.9 15.4001 33.2 15.4001Z" fill="#F7A93B"/>
<path d="M28.8 25.55H34.5V21.05H28.8V25.55ZM31.4 22.45C31.8 22.45 32.15 22.85 32.15 23.3C32.15 23.8 31.8 24.15 31.4 24.15C31 24.15 30.65 23.75 30.65 23.3C30.65 22.85 31 22.45 31.4 22.45Z" fill="#E77528"/>
<path d="M16.25 24.5C13.35 24.5 11 26.75 11 29.5C11 32.25 13.35 34.5 16.25 34.5C18.4 34.5 20.4 33.2 21.15 31.25C21.35 30.7 21.5 30.1 21.5 29.5C21.5 26.75 19.15 24.5 16.25 24.5ZM18.25 30H16.75V31.5C16.75 31.75 16.55 32 16.25 32C16 32 15.75 31.8 15.75 31.5V30H14.25C14 30 13.75 29.8 13.75 29.5C13.75 29.25 13.95 29 14.25 29H15.75V27.5C15.75 27.25 15.95 27 16.25 27C16.5 27 16.75 27.2 16.75 27.5V29H18.25C18.5 29 18.75 29.2 18.75 29.5C18.75 29.8 18.55 30 18.25 30Z" fill="#0DB89A"/>
</svg>
